<?xml version="1.0" encoding="UTF-8" ?>
<!DOCTYPE svg PUBLIC "-//W3C//DTD SVG 1.1//EN" "http://www.w3.org/Graphics/SVG/1.1/DTD/svg11.dtd">
<svg width="1470pt" height="433pt" viewBox="0 0 1470 433" version="1.1" xmlns="http://www.w3.org/2000/svg">
<g id="#4caf50ff">
<path fill="#4caf50" opacity="1.00" d=" M 310.04 38.73 C 356.67 38.53 403.30 38.41 449.94 38.15 C 427.62 85.61 405.86 133.33 383.72 180.87 C 349.86 254.20 315.81 327.45 282.01 400.80 C 254.67 400.82 227.33 400.81 200.00 400.81 C 163.97 324.68 127.71 248.66 91.63 172.56 C 70.56 128.45 49.80 84.20 28.60 40.16 C 47.42 40.07 66.26 40.56 85.06 39.77 C 152.72 39.59 220.38 39.12 288.05 39.18 C 295.36 38.58 302.71 38.81 310.04 38.73 M 188.02 44.75 C 179.65 44.57 171.30 45.25 162.92 45.28 C 121.13 45.40 79.33 45.61 37.53 45.70 C 93.09 162.15 148.27 278.80 203.74 395.30 C 214.74 395.17 225.75 395.32 236.75 395.22 C 236.87 395.46 237.12 395.94 237.24 396.18 C 239.18 396.27 241.13 396.35 243.08 396.43 C 243.23 396.13 243.54 395.52 243.69 395.22 C 255.22 395.31 266.74 395.19 278.27 395.29 C 332.42 278.08 386.83 161.00 440.86 43.74 C 420.89 43.74 400.92 43.77 380.96 43.73 C 376.94 43.73 372.96 44.42 368.95 44.31 C 308.64 44.44 248.33 44.84 188.02 44.75 Z" />
<path fill="#4caf50" opacity="1.00" d=" M 240.02 85.84 C 243.36 96.97 244.02 108.70 247.29 119.85 C 249.58 132.67 252.84 145.30 254.73 158.20 C 257.01 166.69 258.22 175.41 259.98 184.02 C 262.64 192.49 263.25 201.43 265.49 210.01 C 266.32 213.13 266.71 216.34 267.42 219.49 C 268.47 223.76 274.32 225.31 277.69 222.78 C 309.63 183.40 341.93 144.27 374.00 104.98 C 375.92 102.51 377.85 100.03 380.12 97.85 C 370.91 116.48 362.05 135.30 353.05 154.05 C 347.81 164.00 343.53 174.42 338.27 184.36 C 319.70 223.38 300.73 262.22 282.12 301.22 C 268.08 330.13 254.30 359.15 240.14 388.00 C 233.85 374.28 227.45 360.60 220.76 347.06 C 217.20 339.10 213.56 331.19 209.66 323.40 C 174.17 248.24 138.72 173.09 103.14 98.00 C 127.06 127.64 150.95 157.32 174.93 186.92 C 183.41 197.73 192.40 208.14 200.74 219.05 C 202.78 224.64 212.16 224.21 213.59 218.43 C 215.28 210.01 216.26 201.44 218.57 193.15 C 220.90 178.69 224.44 164.46 227.03 150.04 C 229.54 141.15 230.13 131.87 232.53 122.96 C 234.40 114.99 235.09 106.75 237.54 98.92 C 238.64 94.61 239.00 90.16 240.02 85.84 Z" />
<path fill="#4caf50" opacity="1.00" d=" M 468.35 226.60 C 467.51 225.86 467.48 223.39 468.89 223.42 C 469.62 224.18 469.79 226.66 468.35 226.60 Z" />
</g>
<g id="#e65100ff">
<path fill="#e65100" opacity="1.00" d=" M 188.02 44.75 C 248.33 44.84 308.64 44.44 368.95 44.31 C 372.96 44.42 376.94 43.73 380.96 43.73 C 400.92 43.77 420.89 43.74 440.86 43.74 C 386.83 161.00 332.42 278.08 278.27 395.29 C 266.74 395.19 255.22 395.31 243.69 395.22 C 298.83 281.22 353.51 166.99 408.71 53.02 C 363.43 107.85 318.54 163.02 273.48 218.03 C 262.23 163.29 251.41 108.45 240.10 53.72 C 228.97 108.14 218.26 162.64 207.22 217.08 C 163.43 162.87 119.76 108.57 75.81 54.50 C 111.50 130.60 147.61 206.51 183.44 282.55 C 201.25 320.09 218.87 357.71 236.75 395.22 C 225.75 395.32 214.74 395.17 203.74 395.30 C 148.27 278.80 93.09 162.15 37.53 45.70 C 79.33 45.61 121.13 45.40 162.92 45.28 C 171.30 45.25 179.65 44.57 188.02 44.75 Z" />
</g>
<g id="#ffffffff">
<path fill="#ffffff" opacity="1.00" d=" M 273.48 218.03 C 318.54 163.02 363.43 107.85 408.71 53.02 C 353.51 166.99 298.83 281.22 243.69 395.22 C 243.54 395.52 243.23 396.13 243.08 396.43 C 241.13 396.35 239.18 396.27 237.24 396.18 C 237.12 395.94 236.87 395.46 236.75 395.22 C 218.87 357.71 201.25 320.09 183.44 282.55 C 147.61 206.51 111.50 130.60 75.81 54.50 C 119.76 108.57 163.43 162.87 207.22 217.08 C 218.26 162.64 228.97 108.14 240.10 53.72 C 251.41 108.45 262.23 163.29 273.48 218.03 M 240.02 85.84 C 239.00 90.16 238.64 94.61 237.54 98.92 C 235.09 106.75 234.40 114.99 232.53 122.96 C 230.13 131.87 229.54 141.15 227.03 150.04 C 224.44 164.46 220.90 178.69 218.57 193.15 C 216.26 201.44 215.28 210.01 213.59 218.43 C 212.16 224.21 202.78 224.64 200.74 219.05 C 192.40 208.14 183.41 197.73 174.93 186.92 C 150.95 157.32 127.06 127.64 103.14 98.00 C 138.72 173.09 174.17 248.24 209.66 323.40 C 213.56 331.19 217.20 339.10 220.76 347.06 C 227.45 360.60 233.85 374.28 240.14 388.00 C 254.30 359.15 268.08 330.13 282.12 301.22 C 300.73 262.22 319.70 223.38 338.27 184.36 C 343.53 174.42 347.81 164.00 353.05 154.05 C 362.05 135.30 370.91 116.48 380.12 97.85 C 377.85 100.03 375.92 102.51 374.00 104.98 C 341.93 144.27 309.63 183.40 277.69 222.78 C 274.32 225.31 268.47 223.76 267.42 219.49 C 266.71 216.34 266.32 213.13 265.49 210.01 C 263.25 201.43 262.64 192.49 259.98 184.02 C 258.22 175.41 257.01 166.69 254.73 158.20 C 252.84 145.30 249.58 132.67 247.29 119.85 C 244.02 108.70 243.36 96.97 240.02 85.84 Z" />
<path fill="#ffffff" opacity="1.00" d=" M 774.28 156.38 C 783.32 144.24 798.02 137.23 812.87 135.66 C 828.16 134.13 844.23 137.15 857.14 145.76 C 866.99 152.21 874.58 161.69 879.81 172.17 C 869.33 178.35 858.77 184.39 848.35 190.65 C 844.53 182.96 838.74 175.43 830.07 173.10 C 822.24 171.06 812.69 170.61 806.12 176.09 C 800.54 180.81 801.64 190.48 807.78 194.23 C 819.53 202.05 833.81 204.29 846.84 209.20 C 859.26 213.61 872.03 220.19 878.84 232.02 C 885.66 244.20 885.98 259.41 881.51 272.45 C 876.37 287.24 862.81 297.68 848.08 301.90 C 830.66 306.87 811.59 306.47 794.46 300.50 C 777.88 294.75 764.31 281.36 758.29 264.87 C 769.04 258.64 779.79 252.42 790.53 246.17 C 794.48 255.61 801.87 264.12 811.97 267.00 C 821.06 269.55 831.27 269.76 840.08 266.09 C 845.88 263.72 848.68 256.53 846.17 250.82 C 843.97 245.80 838.63 243.37 833.88 241.35 C 818.56 235.25 801.66 233.16 787.44 224.39 C 777.48 218.59 769.32 209.17 766.62 197.80 C 763.16 183.78 765.44 168.02 774.28 156.38 Z" />
<path fill="#ffffff" opacity="1.00" d=" M 1303.79 152.74 C 1315.18 140.37 1332.48 134.66 1349.03 135.31 C 1364.21 135.64 1379.50 140.94 1390.77 151.29 C 1397.28 157.13 1402.38 164.39 1406.31 172.17 C 1395.79 178.33 1385.27 184.47 1374.76 190.64 C 1371.02 182.69 1364.86 175.13 1355.98 172.92 C 1348.57 171.17 1339.87 170.78 1333.40 175.44 C 1327.70 179.42 1327.52 188.71 1332.86 193.06 C 1338.91 198.11 1346.64 200.45 1353.97 202.98 C 1368.89 207.75 1384.89 211.59 1397.05 222.06 C 1404.46 228.35 1409.17 237.51 1410.40 247.12 C 1412.31 260.51 1409.40 275.00 1400.54 285.49 C 1390.62 297.42 1375.17 303.25 1360.08 304.77 C 1342.24 306.50 1323.26 303.98 1307.99 294.06 C 1297.31 287.22 1289.28 276.69 1284.78 264.89 C 1295.53 258.64 1306.28 252.41 1317.05 246.18 C 1320.01 252.92 1324.33 259.32 1330.63 263.34 C 1338.68 268.61 1348.78 269.51 1358.13 268.42 C 1362.50 267.82 1367.11 266.63 1370.36 263.45 C 1374.98 258.96 1374.50 250.57 1369.51 246.53 C 1363.03 241.32 1354.72 239.32 1346.96 236.84 C 1332.21 232.74 1316.69 228.44 1305.13 217.83 C 1287.00 201.42 1287.41 170.22 1303.79 152.74 Z" />
<path fill="#ffffff" opacity="1.00" d=" M 483.00 138.53 C 516.70 138.53 550.40 138.53 584.09 138.53 C 584.06 150.54 584.17 162.54 584.04 174.55 C 562.65 174.51 541.26 174.54 519.88 174.53 C 519.87 183.54 519.89 192.55 519.86 201.56 C 539.32 201.63 558.79 201.57 578.25 201.59 C 578.25 213.43 578.25 225.26 578.25 237.09 C 558.79 237.10 539.33 237.09 519.88 237.09 C 519.87 246.74 519.87 256.38 519.88 266.03 C 541.67 266.03 563.46 266.03 585.25 266.03 C 585.25 278.03 585.25 290.03 585.25 302.03 C 551.81 302.16 518.37 301.78 484.94 302.22 C 484.57 304.30 484.24 306.46 483.15 308.33 C 481.81 309.71 479.91 309.04 478.31 308.69 C 478.06 305.23 480.25 302.89 483.03 301.30 C 482.97 247.04 483.02 192.79 483.00 138.53 Z" />
<path fill="#ffffff" opacity="1.00" d=" M 618.00 138.53 C 630.46 138.53 642.92 138.53 655.38 138.53 C 655.38 162.17 655.37 185.81 655.38 209.45 C 672.03 185.83 688.68 162.20 705.29 138.55 C 719.48 138.50 733.68 138.54 747.87 138.53 C 729.51 165.08 711.13 191.62 692.76 218.17 C 711.90 246.13 731.07 274.07 750.21 302.03 C 736.03 302.05 721.86 302.01 707.69 302.04 C 690.23 276.84 672.81 251.61 655.38 226.39 C 655.37 251.60 655.38 276.82 655.38 302.03 C 642.92 302.03 630.46 302.03 618.00 302.03 C 618.00 247.53 618.00 193.03 618.00 138.53 Z" />
<path fill="#ffffff" opacity="1.00" d=" M 913.48 301.97 C 913.53 247.49 913.48 193.01 913.50 138.53 C 934.33 138.54 955.16 138.51 975.99 138.54 C 990.30 138.60 1004.60 144.06 1015.04 153.91 C 1026.05 164.11 1032.54 178.95 1032.60 193.96 C 1032.85 208.37 1027.22 222.78 1017.20 233.14 C 1006.85 244.02 992.02 250.32 977.05 250.61 C 968.32 250.72 959.60 250.62 950.88 250.66 C 950.87 267.78 950.87 284.91 950.87 302.03 C 938.41 301.99 925.94 302.11 913.48 301.97 M 950.88 173.59 C 950.90 187.60 950.83 201.60 950.91 215.61 C 959.25 215.55 967.59 215.64 975.93 215.57 C 981.74 215.50 987.44 212.65 990.91 207.98 C 996.96 199.93 996.66 187.63 989.97 180.06 C 986.48 176.05 981.24 173.68 975.94 173.61 C 967.58 173.55 959.23 173.61 950.88 173.59 Z" />
<path fill="#ffffff" opacity="1.00" d=" M 1063.00 138.53 C 1084.98 138.54 1106.96 138.51 1128.94 138.54 C 1144.17 138.59 1159.22 145.21 1169.53 156.43 C 1181.75 169.47 1187.19 188.68 1183.10 206.14 C 1179.49 221.62 1168.43 234.85 1154.36 242.03 C 1165.95 262.03 1177.55 282.03 1189.14 302.03 C 1175.74 302.03 1162.33 302.03 1148.93 302.03 C 1138.65 284.13 1128.38 266.22 1118.10 248.31 C 1112.18 248.32 1106.28 248.31 1100.38 248.32 C 1100.38 266.22 1100.38 284.13 1100.38 302.03 C 1087.92 302.03 1075.46 302.03 1063.00 302.03 C 1063.00 247.53 1063.00 193.03 1063.00 138.53 M 1100.38 215.59 C 1109.58 215.58 1118.79 215.60 1128.00 215.59 C 1131.96 215.65 1135.93 214.34 1139.05 211.89 C 1146.99 205.75 1149.11 193.96 1145.04 185.01 C 1142.31 178.67 1136.00 173.73 1128.95 173.62 C 1119.43 173.54 1109.90 173.62 1100.38 173.59 C 1100.37 187.59 1100.37 201.59 1100.38 215.59 Z" />
<path fill="#ffffff" opacity="1.00" d=" M 1218.49 301.99 C 1218.51 247.50 1218.48 193.02 1218.50 138.53 C 1230.96 138.53 1243.42 138.53 1255.88 138.53 C 1255.87 193.03 1255.88 247.53 1255.87 302.03 C 1243.41 302.01 1230.95 302.08 1218.49 301.99 Z" />
</g>
</svg>
