<?xml version="1.0" encoding="UTF-8" ?>
<!DOCTYPE svg PUBLIC "-//W3C//DTD SVG 1.1//EN" "http://www.w3.org/Graphics/SVG/1.1/DTD/svg11.dtd">
<svg width="962pt" height="1010pt" viewBox="0 0 962 1010" version="1.1" xmlns="http://www.w3.org/2000/svg">
<g id="#444444ff">
<path fill="#444444" opacity="1.00" d=" M 57.01 44.01 C 338.00 42.66 619.00 41.35 900.00 40.00 C 790.17 277.34 680.31 514.65 570.49 751.99 C 699.66 752.02 828.83 751.99 958.00 752.00 C 958.00 838.00 958.00 924.00 958.00 1010.00 L 4.00 1010.00 C 4.00 924.00 3.99 838.00 4.00 752.00 C 133.78 751.99 263.56 752.02 393.34 751.99 C 281.24 515.99 169.11 280.01 57.01 44.01 M 75.96 55.98 C 152.47 217.15 229.06 378.29 305.62 539.43 C 339.14 610.25 373.01 680.92 406.37 751.81 C 428.23 752.18 450.13 752.02 472.00 751.89 C 477.53 752.09 483.06 752.00 488.59 751.96 C 511.58 751.93 534.58 752.22 557.56 751.81 C 566.23 732.22 575.52 712.91 584.41 693.42 C 683.37 479.63 782.30 265.84 881.24 52.06 C 612.82 53.46 344.38 54.53 75.96 55.98 M 16.01 764.00 C 16.00 842.00 16.01 920.00 16.00 997.99 C 326.00 998.00 636.00 997.99 946.00 998.00 C 945.99 920.00 945.99 842.00 945.99 764.00 C 636.00 764.01 326.00 764.01 16.01 764.00 Z" />
<path fill="#444444" opacity="1.00" d=" M 380.63 832.22 C 390.70 826.64 403.03 826.21 413.96 829.29 C 425.22 832.45 434.65 840.85 439.74 851.28 C 440.41 852.63 438.44 853.03 437.70 853.66 C 431.42 857.06 425.50 861.11 419.09 864.26 C 418.85 863.85 418.38 863.01 418.14 862.60 C 415.61 857.77 411.36 853.57 405.89 852.41 C 400.44 851.25 393.81 851.30 389.77 855.72 C 387.04 859.90 388.90 865.64 393.33 867.73 C 405.82 874.67 421.14 875.39 432.65 884.34 C 445.66 894.02 446.52 914.54 437.13 927.00 C 432.24 933.44 424.80 937.57 417.03 939.43 C 404.69 942.36 391.27 941.73 379.62 936.51 C 370.06 932.23 362.61 923.92 358.90 914.17 C 362.68 911.96 366.50 909.82 370.26 907.58 C 373.72 905.70 376.87 903.17 380.64 901.93 C 383.09 907.53 387.24 912.68 393.07 914.91 C 397.01 916.56 401.34 916.84 405.56 916.83 C 410.58 916.56 417.48 914.93 418.23 908.97 C 419.13 904.19 415.01 900.61 411.01 899.04 C 398.76 893.79 384.55 892.67 373.97 883.90 C 361.51 874.24 360.33 854.59 369.17 842.15 C 372.10 837.96 376.15 834.65 380.63 832.22 Z" />
<path fill="#444444" opacity="1.00" d=" M 732.60 832.24 C 743.06 826.45 755.95 826.15 767.21 829.68 C 777.50 832.90 786.01 840.57 791.11 849.97 C 791.58 850.82 792.51 852.39 791.02 852.87 C 784.59 856.48 778.34 860.44 771.84 863.95 L 771.10 863.98 C 770.86 863.64 770.38 862.96 770.14 862.61 C 767.69 858.00 763.76 853.91 758.57 852.59 C 752.95 851.22 745.99 851.13 741.77 855.72 C 739.25 859.62 740.60 865.12 744.70 867.33 C 754.07 872.97 765.23 874.34 775.12 878.84 C 782.87 882.12 790.32 887.60 793.32 895.78 C 797.14 906.45 795.68 919.37 788.20 928.15 C 782.95 934.41 775.26 938.18 767.36 939.84 C 755.01 942.33 741.65 941.48 730.26 935.85 C 721.31 931.45 714.45 923.43 710.90 914.17 C 714.70 911.95 718.53 909.80 722.31 907.54 C 725.59 905.57 728.88 903.64 732.21 901.76 C 734.36 904.91 735.93 908.52 738.92 911.04 C 743.88 915.72 750.99 917.02 757.59 916.83 C 761.31 916.47 765.43 915.91 768.21 913.16 C 771.37 910.07 770.87 904.29 767.37 901.66 C 763.16 898.40 757.87 897.08 752.90 895.48 C 743.08 892.72 732.75 889.93 724.93 883.02 C 712.68 872.43 712.54 851.86 722.90 839.94 C 725.58 836.75 728.96 834.24 732.60 832.24 Z" />
<path fill="#444444" opacity="1.00" d=" M 174.49 829.57 C 197.11 829.59 219.73 829.47 242.34 829.63 C 242.37 837.46 242.45 845.29 242.32 853.12 C 239.08 854.50 234.93 853.31 231.35 853.63 C 220.66 853.64 209.97 853.48 199.28 853.71 C 199.32 855.03 199.35 856.37 199.39 857.71 C 199.49 862.36 199.43 867.02 199.41 871.69 C 212.46 872.07 225.59 871.22 238.59 872.11 C 238.40 879.92 238.57 887.73 238.50 895.55 C 234.85 895.59 231.19 895.58 227.54 895.50 C 218.15 895.44 208.75 895.48 199.36 895.49 C 199.36 896.84 199.37 898.21 199.38 899.59 C 199.48 904.65 199.44 909.72 199.41 914.80 C 213.99 915.01 228.57 914.76 243.15 914.92 C 243.21 922.95 243.21 930.99 243.15 939.03 C 239.50 939.09 235.84 939.06 232.19 939.05 C 212.94 939.02 193.70 939.10 174.45 939.01 C 174.44 903.86 174.50 868.72 174.43 833.57 C 174.42 832.23 174.46 830.88 174.49 829.57 Z" />
<path fill="#444444" opacity="1.00" d=" M 264.46 829.58 C 272.76 829.56 281.06 829.50 289.35 829.61 C 289.53 842.11 289.43 854.62 289.40 867.12 C 289.30 870.43 289.36 873.74 289.39 877.06 C 299.67 862.59 309.87 848.06 320.05 833.52 C 320.96 832.16 321.92 830.84 322.92 829.55 C 332.25 829.59 341.57 829.53 350.90 829.58 C 350.64 830.12 350.11 831.20 349.85 831.74 C 338.08 848.80 326.20 865.78 314.51 882.88 C 327.20 901.62 340.04 920.27 352.88 938.92 C 348.66 939.14 344.44 939.07 340.22 939.06 C 334.90 938.99 329.58 939.16 324.27 938.93 C 312.75 922.05 301.12 905.23 289.40 888.49 C 289.35 894.57 289.29 900.66 289.42 906.74 C 289.41 917.51 289.55 928.28 289.35 939.05 C 286.04 939.08 282.74 939.06 279.43 939.05 C 274.44 939.03 269.45 939.08 264.46 939.01 C 264.45 903.87 264.49 868.72 264.43 833.58 C 264.43 832.24 264.44 830.89 264.46 829.58 Z" />
<path fill="#444444" opacity="1.00" d=" M 462.43 829.60 C 475.30 829.49 488.18 829.60 501.06 829.55 C 516.72 828.45 532.82 837.38 538.98 852.04 C 543.43 862.13 543.12 874.21 538.10 884.04 C 533.36 893.48 524.40 900.69 514.15 903.27 C 505.39 905.47 496.28 904.20 487.36 904.55 C 487.36 905.90 487.36 907.26 487.38 908.64 C 487.44 918.78 487.53 928.92 487.35 939.05 C 484.04 939.08 480.73 939.06 477.43 939.05 C 472.44 939.03 467.45 939.08 462.46 939.02 C 462.45 903.87 462.49 868.72 462.44 833.58 C 462.42 832.25 462.41 830.90 462.43 829.60 M 487.30 853.12 C 487.32 854.43 487.36 855.74 487.39 857.07 C 487.45 865.00 487.49 872.93 487.37 880.86 C 492.68 881.46 498.03 880.85 503.36 881.28 C 506.25 881.07 509.25 880.54 511.58 878.68 C 518.12 873.91 518.86 863.44 513.63 857.44 C 511.26 854.68 507.66 853.01 504.01 853.07 C 498.44 853.03 492.87 852.99 487.30 853.12 Z" />
<path fill="#444444" opacity="1.00" d=" M 562.45 829.58 C 576.30 829.52 590.14 829.59 603.99 829.55 C 610.14 829.41 616.39 830.38 621.98 833.04 C 636.23 839.40 645.33 855.37 643.46 870.89 C 642.23 882.90 634.10 893.21 623.74 898.96 C 631.24 912.39 639.10 925.62 646.82 938.93 C 642.72 939.14 638.62 939.07 634.53 939.06 C 629.67 939.03 624.81 939.05 619.96 939.05 C 612.98 927.06 606.21 914.95 599.17 902.99 C 595.22 903.07 591.28 903.03 587.33 903.07 C 587.33 904.31 587.35 905.55 587.37 906.81 C 587.46 917.56 587.51 928.31 587.36 939.05 C 584.04 939.08 580.74 939.06 577.43 939.05 C 572.44 939.03 567.45 939.08 562.46 939.01 C 562.45 903.87 562.49 868.72 562.43 833.58 C 562.42 832.24 562.42 830.89 562.45 829.58 M 587.33 853.08 C 587.34 854.40 587.36 855.73 587.38 857.07 C 587.47 865.00 587.48 872.93 587.37 880.87 C 593.13 881.40 598.92 881.01 604.70 881.14 L 604.54 881.30 C 610.47 881.70 616.22 877.84 617.86 872.09 C 620.65 864.61 616.38 854.55 608.06 853.21 C 601.16 852.85 594.24 853.12 587.33 853.08 Z" />
<path fill="#444444" opacity="1.00" d=" M 666.46 829.59 C 674.77 829.57 683.09 829.47 691.40 829.64 C 691.42 866.11 691.55 902.58 691.33 939.05 C 687.69 939.08 684.06 939.06 680.43 939.05 C 675.77 939.03 671.11 939.08 666.45 939.01 C 666.45 903.86 666.49 868.72 666.43 833.57 C 666.42 832.24 666.42 830.89 666.46 829.59 Z" />
</g>
<g id="#e65100ff">
<path fill="#e65100" opacity="1.00" d=" M 75.96 55.98 C 344.38 54.53 612.82 53.46 881.24 52.06 C 782.30 265.84 683.37 479.63 584.41 693.42 C 575.52 712.91 566.23 732.22 557.56 751.81 C 534.58 752.22 511.58 751.93 488.59 751.96 C 523.20 680.63 557.43 609.12 591.90 537.72 C 661.58 393.11 731.24 248.49 800.91 103.88 C 806.37 92.61 811.62 81.23 817.46 70.15 C 812.96 74.51 809.32 79.62 805.33 84.41 C 719.12 189.56 633.14 294.90 546.84 399.97 C 528.67 310.31 510.58 220.63 492.41 130.98 C 488.70 111.86 484.41 92.84 481.00 73.67 L 479.67 72.91 C 460.21 170.50 440.58 268.06 421.01 365.63 C 419.19 376.15 416.40 386.52 415.08 397.13 C 414.78 397.24 414.16 397.46 413.86 397.57 C 387.54 364.46 360.72 331.75 334.24 298.76 C 273.18 223.21 212.17 147.62 151.12 72.07 C 155.69 82.87 161.20 93.24 166.01 103.94 C 261.62 306.27 357.22 508.60 452.82 710.94 C 459.20 724.60 465.86 738.13 472.00 751.89 C 450.13 752.02 428.23 752.18 406.37 751.81 C 373.01 680.92 339.14 610.25 305.62 539.43 C 229.06 378.29 152.47 217.15 75.96 55.98 Z" />
</g>
<g id="#ffffffff">
<path fill="#ffffff" opacity="1.00" d=" M 805.33 84.41 C 809.32 79.62 812.96 74.51 817.46 70.15 C 811.62 81.23 806.37 92.61 800.91 103.88 C 731.24 248.49 661.58 393.11 591.90 537.72 C 557.43 609.12 523.20 680.63 488.59 751.96 C 483.06 752.00 477.53 752.09 472.00 751.89 C 465.86 738.13 459.20 724.60 452.82 710.94 C 357.22 508.60 261.62 306.27 166.01 103.94 C 161.20 93.24 155.69 82.87 151.12 72.07 C 212.17 147.62 273.18 223.21 334.24 298.76 C 360.72 331.75 387.54 364.46 413.86 397.57 C 414.16 397.46 414.78 397.24 415.08 397.13 C 416.40 386.52 419.19 376.15 421.01 365.63 C 440.58 268.06 460.21 170.50 479.67 72.91 L 481.00 73.67 C 484.41 92.84 488.70 111.86 492.41 130.98 C 510.58 220.63 528.67 310.31 546.84 399.97 C 633.14 294.90 719.12 189.56 805.33 84.41 M 474.89 162.91 C 472.24 169.24 471.57 176.14 470.29 182.82 C 468.22 191.79 467.27 200.98 465.18 209.94 C 462.71 216.02 462.49 222.67 461.03 229.01 C 458.82 239.57 458.16 250.49 454.69 260.76 C 451.69 275.86 448.90 290.98 445.85 306.08 C 442.93 316.85 441.08 327.88 439.14 338.86 C 437.86 345.74 437.32 352.85 434.63 359.38 C 432.08 373.21 429.69 387.07 427.24 400.91 C 424.81 410.11 411.99 412.69 405.02 407.13 C 402.31 405.17 402.04 401.54 399.81 399.22 C 393.87 393.06 389.29 385.75 383.37 379.58 C 380.51 376.98 379.41 373.02 376.35 370.59 C 372.93 367.83 371.67 363.38 368.32 360.58 C 364.09 357.04 362.02 351.71 357.89 348.08 C 351.63 340.03 345.30 332.01 338.84 324.12 C 335.97 321.56 334.08 318.23 331.80 315.20 C 329.40 311.96 325.66 309.78 324.02 305.99 C 322.29 302.25 318.13 300.44 316.37 296.71 C 314.51 292.71 310.40 290.49 308.27 286.68 C 306.32 283.08 302.85 280.66 300.94 277.04 C 298.76 273.31 294.89 270.91 292.91 267.02 C 287.53 261.68 283.62 255.03 278.40 249.52 C 271.64 240.69 264.49 232.17 257.39 223.62 C 254.82 221.38 253.84 217.94 251.37 215.64 C 248.16 213.03 246.35 209.32 243.85 206.15 C 239.26 202.26 236.86 196.54 232.35 192.58 C 227.89 187.66 224.67 181.72 219.89 177.08 C 217.03 173.90 215.23 169.88 211.88 167.12 C 209.23 165.03 208.25 161.65 205.93 159.31 C 208.63 165.70 211.92 171.81 215.06 178.00 C 217.91 183.48 219.30 189.76 223.25 194.62 C 225.57 200.30 227.93 205.98 230.38 211.61 C 235.24 218.82 236.94 227.70 242.26 234.65 C 245.66 242.51 248.20 250.84 253.04 258.00 C 255.63 264.22 257.75 270.73 261.66 276.29 C 264.23 281.81 266.21 287.61 269.06 293.00 C 274.82 301.56 276.72 312.00 282.39 320.61 C 286.50 331.14 292.44 340.81 296.61 351.31 C 297.69 355.29 301.37 357.89 302.23 361.98 C 303.26 366.22 305.82 369.84 307.21 373.95 C 308.43 377.75 311.53 380.62 312.46 384.57 C 314.71 389.01 316.24 393.81 319.01 397.98 C 322.34 403.70 324.20 410.09 327.07 416.01 C 331.25 422.35 333.44 429.68 336.60 436.53 C 341.46 443.24 343.03 451.67 347.58 458.59 C 351.14 463.56 351.96 469.80 355.05 475.02 C 358.30 480.75 361.21 486.68 363.26 492.97 C 366.05 498.76 369.66 504.19 371.77 510.31 C 374.06 514.67 375.46 519.47 378.65 523.31 C 380.10 528.80 383.17 533.62 385.04 538.95 C 388.88 544.88 391.11 551.63 394.18 557.96 C 398.86 565.13 401.41 573.37 405.07 581.05 C 407.94 585.42 409.63 590.40 411.92 595.09 C 414.23 602.59 419.33 608.78 421.71 616.26 C 424.04 620.59 426.57 624.84 428.63 629.31 C 430.21 634.38 432.33 639.28 435.27 643.72 C 437.92 649.78 440.45 655.92 443.19 661.94 C 448.42 669.80 450.49 679.31 456.06 686.98 C 457.93 692.24 459.97 697.46 462.70 702.37 C 465.79 706.39 466.56 711.60 469.03 715.98 C 470.58 718.57 471.11 721.65 472.90 724.12 C 476.25 729.09 477.57 735.05 480.67 740.16 C 480.94 738.19 481.53 736.27 482.73 734.68 C 486.50 729.58 488.14 723.34 490.77 717.66 C 492.25 715.40 493.43 712.97 494.78 710.64 C 498.19 705.44 498.99 698.93 502.88 693.99 C 505.33 689.54 507.57 684.92 509.09 680.07 C 510.56 675.57 513.98 672.07 515.51 667.61 C 518.17 660.38 522.40 653.86 525.74 646.98 C 527.82 638.76 533.77 632.33 536.32 624.32 C 538.50 616.79 543.96 610.81 546.38 603.38 C 548.74 598.75 550.21 593.69 553.51 589.61 C 555.54 582.29 559.85 575.99 563.20 569.27 C 565.11 563.49 567.74 558.00 570.72 552.71 C 573.60 548.59 574.82 543.65 577.24 539.29 C 578.04 535.34 581.62 532.86 582.54 528.99 C 583.53 524.68 586.31 521.13 587.74 517.00 C 588.56 514.29 590.59 512.19 591.69 509.60 C 595.71 498.75 602.43 489.19 606.38 478.31 C 607.14 475.76 609.33 473.99 610.35 471.59 C 611.77 466.08 615.20 461.41 616.94 456.02 C 619.53 452.66 620.30 448.38 622.80 444.98 C 625.71 440.23 626.52 434.46 629.84 429.94 C 632.35 426.13 633.69 421.75 635.59 417.65 C 640.37 410.06 642.86 401.27 647.51 393.62 C 648.64 389.42 651.84 386.24 653.08 382.09 C 655.74 374.73 660.43 368.39 662.97 360.97 C 664.99 357.56 665.89 353.61 668.18 350.36 C 672.30 343.51 673.90 335.39 678.81 329.00 C 681.25 323.97 683.49 318.81 685.74 313.69 C 690.78 305.94 692.82 296.66 697.98 288.97 C 700.85 282.65 703.47 276.16 707.22 270.28 C 710.45 263.82 712.59 256.79 716.56 250.72 C 719.68 243.85 722.24 236.70 726.32 230.31 C 728.65 224.71 731.66 219.45 733.69 213.72 C 736.59 210.55 737.54 206.34 739.60 202.67 C 741.56 198.87 741.98 194.35 744.86 191.03 C 747.97 185.50 750.63 179.68 752.70 173.69 C 756.58 169.14 758.49 163.42 760.84 158.02 C 757.51 163.22 752.44 167.02 749.50 172.47 C 746.70 175.71 743.40 178.54 741.51 182.47 C 734.03 190.12 727.96 198.99 720.84 206.95 C 717.68 212.03 712.85 215.75 709.88 220.94 C 706.66 225.06 702.37 228.29 699.86 232.97 C 695.66 237.77 691.33 242.52 687.89 247.92 C 685.44 251.46 681.53 253.79 679.62 257.73 C 678.13 260.73 675.15 262.50 673.11 265.07 C 671.28 267.01 670.47 269.70 668.53 271.55 C 661.93 277.69 657.47 285.70 651.17 292.11 C 644.67 299.68 638.99 307.95 632.18 315.25 C 629.69 318.99 626.03 321.78 623.74 325.66 C 621.59 329.47 617.57 331.79 615.62 335.73 C 613.81 339.11 610.48 341.27 608.28 344.36 C 604.11 350.12 599.63 355.64 594.74 360.79 C 592.30 364.93 588.88 368.27 585.74 371.84 C 583.44 377.21 577.82 380.04 575.32 385.24 C 573.06 388.93 569.23 391.30 566.87 394.92 C 564.06 399.06 560.46 402.61 557.90 406.93 C 552.31 415.30 537.17 412.75 534.74 402.90 C 533.43 396.28 532.58 389.55 530.80 383.03 C 528.79 377.71 528.62 371.96 527.41 366.45 C 524.90 356.88 524.68 346.81 521.42 337.43 C 518.69 329.66 518.30 321.38 516.44 313.40 C 515.06 306.30 513.76 299.19 512.58 292.05 C 508.93 282.58 508.41 272.29 506.44 262.40 C 504.43 253.30 503.54 243.92 500.58 235.05 C 497.68 220.98 495.83 206.69 491.83 192.88 C 489.62 185.55 489.21 177.84 487.44 170.41 C 486.75 165.19 485.34 160.09 484.80 154.85 C 483.94 148.10 480.93 141.86 480.27 135.07 C 477.71 144.19 477.37 153.77 474.89 162.91 Z" />
<path fill="#ffffff" opacity="1.00" d=" M 16.01 764.00 C 326.00 764.01 636.00 764.01 945.99 764.00 C 945.99 842.00 945.99 920.00 946.00 998.00 C 636.00 997.99 326.00 998.00 16.00 997.99 C 16.01 920.00 16.00 842.00 16.01 764.00 M 40.00 787.00 C 40.00 852.00 40.00 917.00 40.00 982.00 C 335.34 982.00 630.67 982.00 926.00 982.00 C 926.00 917.00 926.00 852.00 926.00 787.00 C 630.67 787.00 335.33 787.00 40.00 787.00 Z" />
<path fill="#ffffff" opacity="1.00" d=" M 357.71 846.70 C 362.90 838.93 371.60 834.06 380.63 832.22 C 376.15 834.65 372.10 837.96 369.17 842.15 C 360.33 854.59 361.51 874.24 373.97 883.90 C 384.55 892.67 398.76 893.79 411.01 899.04 C 415.01 900.61 419.13 904.19 418.23 908.97 C 417.48 914.93 410.58 916.56 405.56 916.83 C 408.76 912.83 407.13 906.61 402.56 904.45 C 390.08 897.87 374.80 897.52 363.52 888.42 C 350.73 879.06 349.13 859.38 357.71 846.70 Z" />
<path fill="#ffffff" opacity="1.00" d=" M 706.87 851.95 C 711.19 841.38 721.63 834.36 732.60 832.24 C 728.96 834.24 725.58 836.75 722.90 839.94 C 712.54 851.86 712.68 872.43 724.93 883.02 C 732.75 889.93 743.08 892.72 752.90 895.48 C 757.87 897.08 763.16 898.40 767.37 901.66 C 770.87 904.29 771.37 910.07 768.21 913.16 C 765.43 915.91 761.31 916.47 757.59 916.83 C 760.29 913.26 759.61 907.69 755.74 905.25 C 749.36 901.05 741.67 899.67 734.49 897.41 C 725.59 894.73 716.45 890.88 710.46 883.47 C 703.51 874.71 702.81 862.10 706.87 851.95 Z" />
<path fill="#ffffff" opacity="1.00" d=" M 312.79 833.58 C 315.21 833.56 317.63 833.54 320.05 833.52 C 309.87 848.06 299.67 862.59 289.39 877.06 C 289.36 873.74 289.30 870.43 289.40 867.12 C 296.88 855.74 305.05 844.79 312.79 833.58 Z" />
<path fill="#ffffff" opacity="1.00" d=" M 163.32 942.93 C 163.50 906.46 163.22 869.99 163.47 833.52 C 167.12 833.58 170.77 833.54 174.43 833.57 C 174.50 868.72 174.44 903.86 174.45 939.01 C 193.70 939.10 212.94 939.02 232.19 939.05 C 232.18 940.37 232.18 941.71 232.18 943.05 C 209.23 942.98 186.27 943.23 163.32 942.93 Z" />
<path fill="#ffffff" opacity="1.00" d=" M 254.33 942.95 C 254.47 906.48 254.27 870.00 254.43 833.53 C 257.77 833.56 261.10 833.55 264.43 833.58 C 264.49 868.72 264.45 903.87 264.46 939.01 C 269.45 939.08 274.44 939.03 279.43 939.05 C 279.43 940.37 279.43 941.71 279.44 943.05 C 271.07 943.00 262.70 943.20 254.33 942.95 Z" />
<path fill="#ffffff" opacity="1.00" d=" M 452.34 942.96 C 452.45 906.49 452.28 870.01 452.43 833.54 C 455.76 833.56 459.10 833.55 462.44 833.58 C 462.49 868.72 462.45 903.87 462.46 939.02 C 467.45 939.08 472.44 939.03 477.43 939.05 C 477.43 940.37 477.43 941.71 477.44 943.06 C 469.07 943.01 460.70 943.18 452.34 942.96 Z" />
<path fill="#ffffff" opacity="1.00" d=" M 552.35 942.98 C 552.45 906.50 552.25 870.01 552.45 833.53 C 555.77 833.56 559.10 833.55 562.43 833.58 C 562.49 868.72 562.45 903.87 562.46 939.01 C 567.45 939.08 572.44 939.03 577.43 939.05 C 577.43 940.37 577.43 941.71 577.44 943.06 C 569.07 943.02 560.71 943.16 552.35 942.98 Z" />
<path fill="#ffffff" opacity="1.00" d=" M 655.35 942.97 C 655.46 906.49 655.26 870.01 655.45 833.53 C 659.10 833.57 662.77 833.54 666.43 833.57 C 666.49 868.72 666.45 903.86 666.45 939.01 C 671.11 939.08 675.77 939.03 680.43 939.05 C 680.43 940.37 680.43 941.71 680.43 943.06 C 672.07 943.01 663.71 943.17 655.35 942.97 Z" />
<path fill="#ffffff" opacity="1.00" d=" M 389.77 855.72 C 393.81 851.30 400.44 851.25 405.89 852.41 C 411.36 853.57 415.61 857.77 418.14 862.60 C 414.80 864.58 411.45 866.55 408.07 868.49 C 406.07 864.56 403.55 860.65 399.65 858.39 C 396.68 856.55 393.17 856.05 389.77 855.72 Z" />
<path fill="#ffffff" opacity="1.00" d=" M 741.77 855.72 C 745.99 851.13 752.95 851.22 758.57 852.59 C 763.76 853.91 767.69 858.00 770.14 862.61 C 766.79 864.57 763.44 866.55 760.08 868.49 C 758.16 864.77 755.85 861.07 752.26 858.77 C 749.17 856.66 745.40 856.05 741.77 855.72 Z" />
<path fill="#ffffff" opacity="1.00" d=" M 487.30 853.12 C 492.87 852.99 498.44 853.03 504.01 853.07 C 507.66 853.01 511.26 854.68 513.63 857.44 C 518.86 863.44 518.12 873.91 511.58 878.68 C 509.25 880.54 506.25 881.07 503.36 881.28 C 508.49 875.23 508.36 865.06 501.99 859.94 C 497.95 856.44 492.34 857.05 487.39 857.07 C 487.36 855.74 487.32 854.43 487.30 853.12 Z" />
<path fill="#ffffff" opacity="1.00" d=" M 587.33 853.08 C 594.24 853.12 601.16 852.85 608.06 853.21 C 616.38 854.55 620.65 864.61 617.86 872.09 C 616.22 877.84 610.47 881.70 604.54 881.30 L 604.70 881.14 C 610.82 875.09 609.58 863.37 602.20 858.84 C 597.77 856.07 592.31 857.32 587.38 857.07 C 587.36 855.73 587.34 854.40 587.33 853.08 Z" />
<path fill="#ffffff" opacity="1.00" d=" M 199.28 853.71 C 209.97 853.48 220.66 853.64 231.35 853.63 C 231.37 854.62 231.41 856.61 231.43 857.60 C 220.75 857.83 210.07 857.61 199.39 857.71 C 199.35 856.37 199.32 855.03 199.28 853.71 Z" />
<path fill="#ffffff" opacity="1.00" d=" M 289.40 888.49 C 301.12 905.23 312.75 922.05 324.27 938.93 C 329.58 939.16 334.90 938.99 340.22 939.06 C 341.10 940.38 342.00 941.71 342.89 943.04 C 333.34 943.03 323.80 943.17 314.25 942.97 C 306.09 930.82 297.47 918.96 289.42 906.74 C 289.29 900.66 289.35 894.57 289.40 888.49 Z" />
<path fill="#ffffff" opacity="1.00" d=" M 199.36 895.49 C 208.75 895.48 218.15 895.44 227.54 895.50 C 227.52 896.84 227.50 898.19 227.48 899.56 C 218.12 899.58 208.75 899.53 199.38 899.59 C 199.37 898.21 199.36 896.84 199.36 895.49 Z" />
<path fill="#ffffff" opacity="1.00" d=" M 487.36 904.55 C 496.28 904.20 505.39 905.47 514.15 903.27 C 506.04 907.94 496.60 909.17 487.38 908.64 C 487.36 907.26 487.36 905.90 487.36 904.55 Z" />
<path fill="#ffffff" opacity="1.00" d=" M 587.33 903.07 C 591.28 903.03 595.22 903.07 599.17 902.99 C 606.21 914.95 612.98 927.06 619.96 939.05 C 624.81 939.05 629.67 939.03 634.53 939.06 C 635.27 940.30 636.02 941.54 636.79 942.80 C 627.84 943.40 618.84 942.90 609.88 943.06 C 603.09 931.17 596.16 919.37 589.51 907.41 C 588.97 907.26 587.90 906.96 587.37 906.81 C 587.35 905.55 587.33 904.31 587.33 903.07 Z" />
<path fill="#ffffff" opacity="1.00" d=" M 368.35 906.31 C 369.59 905.69 370.23 906.11 370.26 907.58 C 366.50 909.82 362.68 911.96 358.90 914.17 C 362.61 923.92 370.06 932.23 379.62 936.51 C 391.27 941.73 404.69 942.36 417.03 939.43 C 404.08 945.74 388.86 946.87 375.03 942.98 C 362.67 939.64 352.22 930.20 347.85 918.14 C 354.68 914.20 361.46 910.16 368.35 906.31 Z" />
<path fill="#ffffff" opacity="1.00" d=" M 699.85 918.15 C 706.88 914.11 713.82 909.89 720.94 906.01 L 721.80 906.08 C 721.93 906.45 722.19 907.18 722.31 907.54 C 718.53 909.80 714.70 911.95 710.90 914.17 C 714.45 923.43 721.31 931.45 730.26 935.85 C 741.65 941.48 755.01 942.33 767.36 939.84 C 755.53 946.09 741.25 946.38 728.44 943.37 C 715.51 940.30 704.38 930.69 699.85 918.15 Z" />
</g>
<g id="#4caf50ff">
<path fill="#4caf50" opacity="1.00" d=" M 474.89 162.91 C 477.37 153.77 477.71 144.19 480.27 135.07 C 480.93 141.86 483.94 148.10 484.80 154.85 C 485.34 160.09 486.75 165.19 487.44 170.41 C 489.21 177.84 489.62 185.55 491.83 192.88 C 495.83 206.69 497.68 220.98 500.58 235.05 C 503.54 243.92 504.43 253.30 506.44 262.40 C 508.41 272.29 508.93 282.58 512.58 292.05 C 513.76 299.19 515.06 306.30 516.44 313.40 C 518.30 321.38 518.69 329.66 521.42 337.43 C 524.68 346.81 524.90 356.88 527.41 366.45 C 528.62 371.96 528.79 377.71 530.80 383.03 C 532.58 389.55 533.43 396.28 534.74 402.90 C 537.17 412.75 552.31 415.30 557.90 406.93 C 560.46 402.61 564.06 399.06 566.87 394.92 C 569.23 391.30 573.06 388.93 575.32 385.24 C 577.82 380.04 583.44 377.21 585.74 371.84 C 588.88 368.27 592.30 364.93 594.74 360.79 C 599.63 355.64 604.11 350.12 608.28 344.36 C 610.48 341.27 613.81 339.11 615.62 335.73 C 617.57 331.79 621.59 329.47 623.74 325.66 C 626.03 321.78 629.69 318.99 632.18 315.25 C 638.99 307.95 644.67 299.68 651.17 292.11 C 657.47 285.70 661.93 277.69 668.53 271.55 C 670.47 269.70 671.28 267.01 673.11 265.07 C 675.15 262.50 678.13 260.73 679.62 257.73 C 681.53 253.79 685.44 251.46 687.89 247.92 C 691.33 242.52 695.66 237.77 699.86 232.97 C 702.37 228.29 706.66 225.06 709.88 220.94 C 712.85 215.75 717.68 212.03 720.84 206.95 C 727.96 198.99 734.03 190.12 741.51 182.47 C 743.40 178.54 746.70 175.71 749.50 172.47 C 752.44 167.02 757.51 163.22 760.84 158.02 C 758.49 163.42 756.58 169.14 752.70 173.69 C 750.63 179.68 747.97 185.50 744.86 191.03 C 741.98 194.35 741.56 198.87 739.60 202.67 C 737.54 206.34 736.59 210.55 733.69 213.72 C 731.66 219.45 728.65 224.71 726.32 230.31 C 722.24 236.70 719.68 243.85 716.56 250.72 C 712.59 256.79 710.45 263.82 707.22 270.28 C 703.47 276.16 700.85 282.65 697.98 288.97 C 692.82 296.66 690.78 305.94 685.74 313.69 C 683.49 318.81 681.25 323.97 678.81 329.00 C 673.90 335.39 672.30 343.51 668.18 350.36 C 665.89 353.61 664.99 357.56 662.97 360.97 C 660.43 368.39 655.74 374.73 653.08 382.09 C 651.84 386.24 648.64 389.42 647.51 393.62 C 642.86 401.27 640.37 410.06 635.59 417.65 C 633.69 421.75 632.35 426.13 629.84 429.94 C 626.52 434.46 625.71 440.23 622.80 444.98 C 620.30 448.38 619.53 452.66 616.94 456.02 C 615.20 461.41 611.77 466.08 610.35 471.59 C 609.33 473.99 607.14 475.76 606.38 478.31 C 602.43 489.19 595.71 498.75 591.69 509.60 C 590.59 512.19 588.56 514.29 587.74 517.00 C 586.31 521.13 583.53 524.68 582.54 528.99 C 581.62 532.86 578.04 535.34 577.24 539.29 C 574.82 543.65 573.60 548.59 570.72 552.71 C 567.74 558.00 565.11 563.49 563.20 569.27 C 559.85 575.99 555.54 582.29 553.51 589.61 C 550.21 593.69 548.74 598.75 546.38 603.38 C 543.96 610.81 538.50 616.79 536.32 624.32 C 533.77 632.33 527.82 638.76 525.74 646.98 C 522.40 653.86 518.17 660.38 515.51 667.61 C 513.98 672.07 510.56 675.57 509.09 680.07 C 507.57 684.92 505.33 689.54 502.88 693.99 C 498.99 698.93 498.19 705.44 494.78 710.64 C 493.43 712.97 492.25 715.40 490.77 717.66 C 488.14 723.34 486.50 729.58 482.73 734.68 C 481.53 736.27 480.94 738.19 480.67 740.16 C 477.57 735.05 476.25 729.09 472.90 724.12 C 471.11 721.65 470.58 718.57 469.03 715.98 C 466.56 711.60 465.79 706.39 462.70 702.37 C 459.97 697.46 457.93 692.24 456.06 686.98 C 450.49 679.31 448.42 669.80 443.19 661.94 C 440.45 655.92 437.92 649.78 435.27 643.72 C 432.33 639.28 430.21 634.38 428.63 629.31 C 426.57 624.84 424.04 620.59 421.71 616.26 C 419.33 608.78 414.23 602.59 411.92 595.09 C 409.63 590.40 407.94 585.42 405.07 581.05 C 401.41 573.37 398.86 565.13 394.18 557.96 C 391.11 551.63 388.88 544.88 385.04 538.95 C 383.17 533.62 380.10 528.80 378.65 523.31 C 375.46 519.47 374.06 514.67 371.77 510.31 C 369.66 504.19 366.05 498.76 363.26 492.97 C 361.21 486.68 358.30 480.75 355.05 475.02 C 351.96 469.80 351.14 463.56 347.58 458.59 C 343.03 451.67 341.46 443.24 336.60 436.53 C 333.44 429.68 331.25 422.35 327.07 416.01 C 324.20 410.09 322.34 403.70 319.01 397.98 C 316.24 393.81 314.71 389.01 312.46 384.57 C 311.53 380.62 308.43 377.75 307.21 373.95 C 305.82 369.84 303.26 366.22 302.23 361.98 C 301.37 357.89 297.69 355.29 296.61 351.31 C 292.44 340.81 286.50 331.14 282.39 320.61 C 276.72 312.00 274.82 301.56 269.06 293.00 C 266.21 287.61 264.23 281.81 261.66 276.29 C 257.75 270.73 255.63 264.22 253.04 258.00 C 248.20 250.84 245.66 242.51 242.26 234.65 C 236.94 227.70 235.24 218.82 230.38 211.61 C 227.93 205.98 225.57 200.30 223.25 194.62 C 219.30 189.76 217.91 183.48 215.06 178.00 C 211.92 171.81 208.63 165.70 205.93 159.31 C 208.25 161.65 209.23 165.03 211.88 167.12 C 215.23 169.88 217.03 173.90 219.89 177.08 C 224.67 181.72 227.89 187.66 232.35 192.58 C 236.86 196.54 239.26 202.26 243.85 206.15 C 246.35 209.32 248.16 213.03 251.37 215.64 C 253.84 217.94 254.82 221.38 257.39 223.62 C 264.49 232.17 271.64 240.69 278.40 249.52 C 283.62 255.03 287.53 261.68 292.91 267.02 C 294.89 270.91 298.76 273.31 300.94 277.04 C 302.85 280.66 306.32 283.08 308.27 286.68 C 310.40 290.49 314.51 292.71 316.37 296.71 C 318.13 300.44 322.29 302.25 324.02 305.99 C 325.66 309.78 329.40 311.96 331.80 315.20 C 334.08 318.23 335.97 321.56 338.84 324.12 C 345.30 332.01 351.63 340.03 357.89 348.08 C 362.02 351.71 364.09 357.04 368.32 360.58 C 371.67 363.38 372.93 367.83 376.35 370.59 C 379.41 373.02 380.51 376.98 383.37 379.58 C 389.29 385.75 393.87 393.06 399.81 399.22 C 402.04 401.54 402.31 405.17 405.02 407.13 C 411.99 412.69 424.81 410.11 427.24 400.91 C 429.69 387.07 432.08 373.21 434.63 359.38 C 437.32 352.85 437.86 345.74 439.14 338.86 C 441.08 327.88 442.93 316.85 445.85 306.08 C 448.90 290.98 451.69 275.86 454.69 260.76 C 458.16 250.49 458.82 239.57 461.03 229.01 C 462.49 222.67 462.71 216.02 465.18 209.94 C 467.27 200.98 468.22 191.79 470.29 182.82 C 471.57 176.14 472.24 169.24 474.89 162.91 Z" />
<path fill="#4caf50" opacity="1.00" d=" M 40.00 787.00 C 335.33 787.00 630.67 787.00 926.00 787.00 C 926.00 852.00 926.00 917.00 926.00 982.00 C 630.67 982.00 335.34 982.00 40.00 982.00 C 40.00 917.00 40.00 852.00 40.00 787.00 M 380.63 832.22 C 371.60 834.06 362.90 838.93 357.71 846.70 C 349.13 859.38 350.73 879.06 363.52 888.42 C 374.80 897.52 390.08 897.87 402.56 904.45 C 407.13 906.61 408.76 912.83 405.56 916.83 C 401.34 916.84 397.01 916.56 393.07 914.91 C 387.24 912.68 383.09 907.53 380.64 901.93 C 376.87 903.17 373.72 905.70 370.26 907.58 C 370.23 906.11 369.59 905.69 368.35 906.31 C 361.46 910.16 354.68 914.20 347.85 918.14 C 352.22 930.20 362.67 939.64 375.03 942.98 C 388.86 946.87 404.08 945.74 417.03 939.43 C 424.80 937.57 432.24 933.44 437.13 927.00 C 446.52 914.54 445.66 894.02 432.65 884.34 C 421.14 875.39 405.82 874.67 393.33 867.73 C 388.90 865.64 387.04 859.90 389.77 855.72 C 393.17 856.05 396.68 856.55 399.65 858.39 C 403.55 860.65 406.07 864.56 408.07 868.49 C 411.45 866.55 414.80 864.58 418.14 862.60 C 418.38 863.01 418.85 863.85 419.09 864.26 C 425.50 861.11 431.42 857.06 437.70 853.66 C 438.44 853.03 440.41 852.63 439.74 851.28 C 434.65 840.85 425.22 832.45 413.96 829.29 C 403.03 826.21 390.70 826.64 380.63 832.22 M 732.60 832.24 C 721.63 834.36 711.19 841.38 706.87 851.95 C 702.81 862.10 703.51 874.71 710.46 883.47 C 716.45 890.88 725.59 894.73 734.49 897.41 C 741.67 899.67 749.36 901.05 755.74 905.25 C 759.61 907.69 760.29 913.26 757.59 916.83 C 750.99 917.02 743.88 915.72 738.92 911.04 C 735.93 908.52 734.36 904.91 732.21 901.76 C 728.88 903.64 725.59 905.57 722.31 907.54 C 722.19 907.18 721.93 906.45 721.80 906.08 L 720.94 906.01 C 713.82 909.89 706.88 914.11 699.85 918.15 C 704.38 930.69 715.51 940.30 728.44 943.37 C 741.25 946.38 755.53 946.09 767.36 939.84 C 775.26 938.18 782.95 934.41 788.20 928.15 C 795.68 919.37 797.14 906.45 793.32 895.78 C 790.32 887.60 782.87 882.12 775.12 878.84 C 765.23 874.34 754.07 872.97 744.70 867.33 C 740.60 865.12 739.25 859.62 741.77 855.72 C 745.40 856.05 749.17 856.66 752.26 858.77 C 755.85 861.07 758.16 864.77 760.08 868.49 C 763.44 866.55 766.79 864.57 770.14 862.61 C 770.38 862.96 770.86 863.64 771.10 863.98 L 771.84 863.95 C 778.34 860.44 784.59 856.48 791.02 852.87 C 792.51 852.39 791.58 850.82 791.11 849.97 C 786.01 840.57 777.50 832.90 767.21 829.68 C 755.95 826.15 743.06 826.45 732.60 832.24 M 174.49 829.57 C 174.46 830.88 174.42 832.23 174.43 833.57 C 170.77 833.54 167.12 833.58 163.47 833.52 C 163.22 869.99 163.50 906.46 163.32 942.93 C 186.27 943.23 209.23 942.98 232.18 943.05 C 232.18 941.71 232.18 940.37 232.19 939.05 C 235.84 939.06 239.50 939.09 243.15 939.03 C 243.21 930.99 243.21 922.95 243.15 914.92 C 228.57 914.76 213.99 915.01 199.41 914.80 C 199.44 909.72 199.48 904.65 199.38 899.59 C 208.75 899.53 218.12 899.58 227.48 899.56 C 227.50 898.19 227.52 896.84 227.54 895.50 C 231.19 895.58 234.85 895.59 238.50 895.55 C 238.57 887.73 238.40 879.92 238.59 872.11 C 225.59 871.22 212.46 872.07 199.41 871.69 C 199.43 867.02 199.49 862.36 199.39 857.71 C 210.07 857.61 220.75 857.83 231.43 857.60 C 231.41 856.61 231.37 854.62 231.35 853.63 C 234.93 853.31 239.08 854.50 242.32 853.12 C 242.45 845.29 242.37 837.46 242.34 829.63 C 219.73 829.47 197.11 829.59 174.49 829.57 M 264.46 829.58 C 264.44 830.89 264.43 832.24 264.43 833.58 C 261.10 833.55 257.77 833.56 254.43 833.53 C 254.27 870.00 254.47 906.48 254.33 942.95 C 262.70 943.20 271.07 943.00 279.44 943.05 C 279.43 941.71 279.43 940.37 279.43 939.05 C 282.74 939.06 286.04 939.08 289.35 939.05 C 289.55 928.28 289.41 917.51 289.42 906.74 C 297.47 918.96 306.09 930.82 314.25 942.97 C 323.80 943.17 333.34 943.03 342.89 943.04 C 342.00 941.71 341.10 940.38 340.22 939.06 C 344.44 939.07 348.66 939.14 352.88 938.92 C 340.04 920.27 327.20 901.62 314.51 882.88 C 326.20 865.78 338.08 848.80 349.85 831.74 C 350.11 831.20 350.64 830.12 350.90 829.58 C 341.57 829.53 332.25 829.59 322.92 829.55 C 321.92 830.84 320.96 832.16 320.05 833.52 C 317.63 833.54 315.21 833.56 312.79 833.58 C 305.05 844.79 296.88 855.74 289.40 867.12 C 289.43 854.62 289.53 842.11 289.35 829.61 C 281.06 829.50 272.76 829.56 264.46 829.58 M 462.43 829.60 C 462.41 830.90 462.42 832.25 462.44 833.58 C 459.10 833.55 455.76 833.56 452.43 833.54 C 452.28 870.01 452.45 906.49 452.34 942.96 C 460.70 943.18 469.07 943.01 477.44 943.06 C 477.43 941.71 477.43 940.37 477.43 939.05 C 480.73 939.06 484.04 939.08 487.35 939.05 C 487.53 928.92 487.44 918.78 487.38 908.64 C 496.60 909.17 506.04 907.94 514.15 903.27 C 524.40 900.69 533.36 893.48 538.10 884.04 C 543.12 874.21 543.43 862.13 538.98 852.04 C 532.82 837.38 516.72 828.45 501.06 829.55 C 488.18 829.60 475.30 829.49 462.43 829.60 M 562.45 829.58 C 562.42 830.89 562.42 832.24 562.43 833.58 C 559.10 833.55 555.77 833.56 552.45 833.53 C 552.25 870.01 552.45 906.50 552.35 942.98 C 560.71 943.16 569.07 943.02 577.44 943.06 C 577.43 941.71 577.43 940.37 577.43 939.05 C 580.74 939.06 584.04 939.08 587.36 939.05 C 587.51 928.31 587.46 917.56 587.37 906.81 C 587.90 906.96 588.97 907.26 589.51 907.41 C 596.16 919.37 603.09 931.17 609.88 943.06 C 618.84 942.90 627.84 943.40 636.79 942.80 C 636.02 941.54 635.27 940.30 634.53 939.06 C 638.62 939.07 642.72 939.14 646.82 938.93 C 639.10 925.62 631.24 912.39 623.74 898.96 C 634.10 893.21 642.23 882.90 643.46 870.89 C 645.33 855.37 636.23 839.40 621.98 833.04 C 616.39 830.38 610.14 829.41 603.99 829.55 C 590.14 829.59 576.30 829.52 562.45 829.58 M 666.46 829.59 C 666.42 830.89 666.42 832.24 666.43 833.57 C 662.77 833.54 659.10 833.57 655.45 833.53 C 655.26 870.01 655.46 906.49 655.35 942.97 C 663.71 943.17 672.07 943.01 680.43 943.06 C 680.43 941.71 680.43 940.37 680.43 939.05 C 684.06 939.06 687.69 939.08 691.33 939.05 C 691.55 902.58 691.42 866.11 691.40 829.64 C 683.09 829.47 674.77 829.57 666.46 829.59 Z" />
<path fill="#4caf50" opacity="1.00" d=" M 487.39 857.07 C 492.34 857.05 497.95 856.44 501.99 859.94 C 508.36 865.06 508.49 875.23 503.36 881.28 C 498.03 880.85 492.68 881.46 487.37 880.86 C 487.49 872.93 487.45 865.00 487.39 857.07 Z" />
<path fill="#4caf50" opacity="1.00" d=" M 587.38 857.07 C 592.31 857.32 597.77 856.07 602.20 858.84 C 609.58 863.37 610.82 875.09 604.70 881.14 C 598.92 881.01 593.13 881.40 587.37 880.87 C 587.48 872.93 587.47 865.00 587.38 857.07 Z" />
</g>
</svg>
