<?xml version="1.0"?>
<svg xmlns="http://www.w3.org/2000/svg" xmlns:xlink="http://www.w3.org/1999/xlink" version="1.1" id="Capa_1" x="0px" y="0px" viewBox="0 0 454 454" style="enable-background:new 0 0 454 454;" xml:space="preserve" width="512px" height="512px" class=""><g><g>
	<g>
		<path d="M449,375.477h-21.542l9.45-83.104c0.155-1.363-0.257-2.73-1.139-3.78c-0.882-1.051-2.158-1.692-3.527-1.775l-43.23-2.618    c-3.835-39.426-21.807-75.915-50.912-103.151c-30.316-28.37-69.891-43.994-111.433-43.994    c-81.594,0-150.412,60.128-161.562,140.46l-44.13,8.411c-1.382,0.264-2.59,1.097-3.326,2.297c-0.736,1.2-0.933,2.654-0.541,4.006    l24.111,83.249H5c-2.761,0-5,2.239-5,5c0,2.761,2.239,5,5,5h444c2.761,0,5-2.239,5-5C454,377.716,451.761,375.477,449,375.477z     M51.629,375.477L28.24,294.72l65.013-12.391l16.002,93.147H51.629z M201.776,375.477H153.39l-1.605-60.094h57.217    L201.776,375.477z M284.389,375.477h-17.337l10.432-87.438c0.327-2.742-1.63-5.23-4.373-5.557l-30.178-3.601l2.039-17.094    l30.179,3.601c2.74,0.321,5.23-1.631,5.557-4.373l3.088-25.885l17.094,2.04l-3.088,25.886c-0.327,2.742,1.63,5.23,4.373,5.557    l30.178,3.601l-2.04,17.093l-30.178-3.601c-1.321-0.155-2.642,0.216-3.684,1.035c-1.042,0.82-1.716,2.02-1.873,3.337    L284.389,375.477z M303.915,296.227l30.178,3.601c2.741,0.321,5.23-1.631,5.557-4.373l3.225-27.023    c0.157-1.316-0.215-2.642-1.035-3.684c-0.82-1.042-2.021-1.716-3.337-1.873l-30.178-3.601l3.088-25.886    c0.327-2.742-1.63-5.23-4.373-5.557l-27.023-3.224c-1.32-0.156-2.642,0.216-3.684,1.035c-1.042,0.82-1.716,2.021-1.873,3.337    l-3.088,25.885l-30.179-3.601c-1.32-0.156-2.642,0.215-3.684,1.035c-1.042,0.82-1.716,2.021-1.873,3.337l-3.224,27.023    c-0.327,2.742,1.63,5.23,4.373,5.557l30.178,3.601l-9.981,83.658h-45.133l7.755-64.497c0.17-1.42-0.275-2.845-1.224-3.915    c-0.949-1.07-2.311-1.682-3.741-1.682h-67.989c-1.349,0-2.641,0.545-3.583,1.512c-0.941,0.966-1.452,2.272-1.415,3.621    l1.735,64.961h-23.984l-17.155-99.859c-0.227-1.322-0.977-2.498-2.079-3.263c-1.103-0.765-2.468-1.053-3.785-0.802l-20.852,3.974    c11.896-73.706,75.689-128.473,151.136-128.473c78.12,0,143.904,59.524,152.223,136.532l-23.476-1.422    c-1.419-0.085-2.82,0.441-3.832,1.45c-1.012,1.008-1.544,2.401-1.462,3.827l5.049,88.036h-60.708L303.915,296.227z     M365.186,375.477l-4.76-82.991l65.952,3.995l-8.983,78.997H365.186z" data-original="#000000" class="active-path" data-old_color="#ffffff" fill="#ffffff"/>
		<path d="M183.25,77.238l-20.486-8.348c-1.807-0.737-3.783-0.322-5.161,0.878l-0.017-0.019L143.215,82.25l-17.638-7.187    c-1.808-0.738-3.782-0.322-5.16,0.877l-0.016-0.018l-16.69,14.52c-2.084,1.813-2.303,4.971-0.491,7.054    c0.989,1.137,2.378,1.718,3.774,1.718c1.164,0,2.333-0.404,3.28-1.227l14.374-12.504l17.643,7.189c0,0,1.085,0.39,1.889,0.37    c1.163-0.029,2.333-0.404,3.28-1.228l14.375-12.505l17.643,7.189c0.618,0.252,1.256,0.371,1.885,0.371    c1.973,0,3.842-1.175,4.632-3.115C187.036,81.198,185.808,78.28,183.25,77.238z" data-original="#000000" class="active-path" data-old_color="#ffffff" fill="#ffffff"/>
		<path d="M127.371,126.193l-18.136-3.131c-1.924-0.333-3.763,0.495-4.852,1.962l-9.159,12.291l-15.105-2.608    c-1.921-0.329-3.761,0.498-4.851,1.962l-0.02-0.015l-10.975,14.774c-1.647,2.217-1.185,5.349,1.032,6.995    c0.896,0.665,1.941,0.987,2.978,0.987c1.528,0,3.037-0.698,4.018-2.019l9.143-12.308c0,0,15.385,2.728,15.956,2.683    c0.001,0,0.001,0,0.003,0c0.002,0,0.005,0.001,0.007,0.001c0,0,2.388,0.247,4.008-2.02l9.144-12.309l15.109,2.609    c0.288,0.05,0.574,0.074,0.856,0.074c2.388,0,4.501-1.717,4.921-4.15C131.918,129.25,130.092,126.664,127.371,126.193z" data-original="#000000" class="active-path" data-old_color="#ffffff" fill="#ffffff"/>
		<path d="M372.086,141.095l-14.173-13.735c-1.31-1.273-3.259-1.796-5.104-1.16l-15.752,5.43l-11.952-11.61    c-1.399-1.359-3.385-1.715-5.111-1.12l-18.668,6.41c-2.611,0.9-3.998,3.746-3.098,6.356c0.714,2.071,2.652,3.372,4.727,3.372    c0.541,0,1.09-0.088,1.63-0.275l15.756-5.431l11.954,11.613l0-0.001c0.927,0.898,2.177,1.416,3.483,1.416    c0.54,0,1.09-0.088,1.63-0.274l15.757-5.431l11.954,11.613c0.972,0.944,2.228,1.414,3.483,1.414c1.304,0,2.606-0.507,3.587-1.516    C374.112,146.184,374.066,143.019,372.086,141.095z" data-original="#000000" class="active-path" data-old_color="#ffffff" fill="#ffffff"/>
	</g>
</g></g> </svg>
