<?xml version="1.0"?>
<svg xmlns="http://www.w3.org/2000/svg" xmlns:xlink="http://www.w3.org/1999/xlink" version="1.1" id="Capa_1" x="0px" y="0px" viewBox="0 0 512 512" style="enable-background:new 0 0 512 512;" xml:space="preserve" width="512px" height="512px" class=""><g><g>
	<path d="M503.812,219.038c-1.657-53.666-22.998-104.023-60.092-141.795   C405.925,38.756,355.604,17.56,302.03,17.56H209.97c-53.342,0-103.539,21.069-141.342,59.327   c-37.311,37.76-58.776,88.243-60.44,142.15L0.005,484.131c-0.083,2.704,0.933,5.327,2.816,7.27   c1.883,1.942,4.474,3.039,7.179,3.039h492c2.706,0,5.296-1.097,7.18-3.039c1.883-1.942,2.898-4.565,2.815-7.27L503.812,219.038z    M419.637,474.439l-6.65-215.422c-0.167-5.415-4.609-9.691-9.989-9.691c-0.104,0-0.21,0.002-0.314,0.005   c-5.521,0.17-9.857,4.783-9.687,10.304l6.631,214.805H20.313l7.864-254.784C31.331,117.546,111.183,37.56,209.97,37.56   c84.551,0,157.296,59.363,176.902,144.362c1.242,5.381,6.603,8.73,11.992,7.496c5.381-1.241,8.737-6.61,7.496-11.992   c-10.269-44.515-34.914-84.911-69.397-113.746c-12.475-10.432-25.887-19.16-40.037-26.12h5.103   c98.786,0,178.639,79.985,181.792,182.095l7.864,254.784H419.637z" data-original="#000000" class="active-path" data-old_color="#ffffff" fill="#ffffff"/>
	<path d="M108.87,169.5h192.307c5.522,0,10-4.477,10-10s-4.478-10-10-10H108.87   c-5.523,0-10,4.477-10,10S103.347,169.5,108.87,169.5z" data-original="#000000" class="active-path" data-old_color="#ffffff" fill="#ffffff"/>
	<path d="M286.176,396.702h-171.85c-5.523,0-10,4.478-10,10c0,5.522,4.477,10,10,10   h171.85c5.522,0,10-4.478,10-10C296.176,401.18,291.698,396.702,286.176,396.702z" data-original="#000000" class="active-path" data-old_color="#ffffff" fill="#ffffff"/>
	<path d="M114.326,231.9c-5.523,0-10,4.477-10,10c0,5.522,4.477,10,10,10h158.552   c5.522,0,10-4.478,10-10c0-5.523-4.478-10-10-10H114.326z" data-original="#000000" class="active-path" data-old_color="#ffffff" fill="#ffffff"/>
	<path d="M306.633,314.301H88.763c-5.523,0-10,4.478-10,10c0,5.522,4.477,10,10,10   h217.87c5.522,0,10-4.478,10-10C316.633,318.778,312.155,314.301,306.633,314.301z" data-original="#000000" class="active-path" data-old_color="#ffffff" fill="#ffffff"/>
	<path d="M401.757,209.347c-5.508,0-10,4.492-10,10c0,5.509,4.492,10,10,10   c5.508,0,10.001-4.491,10.001-10C411.758,213.839,407.265,209.347,401.757,209.347z" data-original="#000000" class="active-path" data-old_color="#ffffff" fill="#ffffff"/>
</g></g> </svg>
